<?xml version="1.0" standalone="no"?>
<!DOCTYPE svg PUBLIC "-//W3C//DTD SVG 20010904//EN"
 "http://www.w3.org/TR/2001/REC-SVG-20010904/DTD/svg10.dtd">
<svg version="1.0" xmlns="http://www.w3.org/2000/svg"
 width="1099.000000pt" height="1099.000000pt" viewBox="0 0 1099.000000 1099.000000"
 preserveAspectRatio="xMidYMid meet">
<metadata>
Created by potrace 1.11, written by Peter Selinger 2001-2013
</metadata>
<g transform="translate(0.000000,1099.000000) scale(0.100000,-0.100000)"
fill="#000000" stroke="none">
<path d="M5730 8976 c0 -97 -3 -177 -7 -177 -5 -1 -462 -2 -1018 -4 l-1010 -2
-95 -31 c-305 -101 -538 -341 -628 -647 -39 -132 -45 -209 -51 -680 -7 -514
-3 -486 -81 -564 -77 -76 26 -71 -1487 -71 l-1353 0 0 -370 0 -369 488 -3 487
-3 40 -26 c55 -36 80 -66 107 -124 l23 -50 3 -1787 2 -1788 370 0 370 0 0
1783 c0 1986 -5 1838 69 1915 75 77 75 77 446 77 371 0 371 0 446 -77 74 -76
69 22 69 -1485 l0 -1353 370 0 370 0 0 1353 c0 1509 -5 1408 70 1485 81 82 16
77 908 80 l792 2 0 370 0 370 -782 1 c-573 0 -792 4 -815 12 -59 22 -117 72
-143 123 l-25 49 0 460 c0 513 -2 496 71 569 75 75 1 70 1039 71 512 1 936 -1
943 -3 9 -3 12 -48 12 -179 l0 -174 355 355 355 355 -177 178 c-98 98 -258
258 -356 356 l-177 178 0 -175z"/>
<path d="M3990 4895 l0 -895 1088 1 c902 0 1100 3 1162 15 154 29 233 60 334
127 65 44 178 154 200 196 7 14 27 51 44 81 38 68 79 209 91 315 22 187 -3
436 -58 569 -6 16 -14 33 -17 37 -3 5 50 9 118 9 l124 0 149 -672 150 -673
272 -3 271 -2 11 32 c5 18 73 263 151 543 78 281 145 516 149 522 3 7 56 -164
116 -380 60 -215 115 -412 122 -437 36 -130 66 -238 70 -257 l5 -23 273 0 273
0 7 28 c4 15 9 36 11 47 2 11 15 72 29 135 15 63 29 126 31 140 3 14 45 206
94 427 49 221 91 412 94 425 2 13 19 86 36 163 17 77 34 149 36 160 7 36 12
59 33 152 12 51 21 97 21 103 0 7 -87 9 -262 8 l-261 -3 -4 -25 c-3 -21 -22
-121 -36 -195 -3 -11 -35 -182 -72 -380 -38 -198 -70 -362 -72 -364 -6 -8 -12
5 -31 79 -45 170 -234 847 -243 868 l-9 22 -260 0 c-200 0 -262 -3 -265 -12
-2 -7 -64 -230 -137 -495 -73 -265 -133 -481 -134 -480 -1 1 -21 101 -43 222
-23 121 -59 310 -81 420 -21 110 -44 233 -51 273 l-13 73 -836 -4 c-459 -1
-846 -6 -860 -10 -14 -3 -47 -12 -75 -18 -65 -15 -173 -57 -207 -81 -14 -10
-29 -18 -33 -18 -3 0 -32 -20 -63 -44 -153 -118 -249 -286 -287 -504 -18 -98
-20 -328 -5 -412 16 -96 21 -112 41 -169 12 -31 23 -64 26 -73 5 -17 -15 -18
-326 -18 -258 0 -331 3 -331 13 0 6 -1 310 -2 675 l-1 662 -278 0 -279 0 0
-895z m2150 473 c114 -37 187 -123 222 -261 18 -71 20 -102 15 -242 -7 -218
-35 -307 -124 -385 -62 -54 -127 -75 -238 -74 -78 0 -97 4 -147 29 -144 71
-207 209 -208 455 0 278 87 437 266 484 55 15 161 12 214 -6z"/>
</g>
</svg>
